<svg xmlns="http://www.w3.org/2000/svg" xmlns:xlink="http://www.w3.org/1999/xlink" width="1200" zoomAndPan="magnify" viewBox="0 0 900 637.499986" height="850" preserveAspectRatio="xMidYMid meet" version="1.0"><defs><g/><clipPath id="fe3656aaae"><path d="M 19.421875 112.5 L 880.496094 112.5 L 880.496094 613 L 19.421875 613 Z M 19.421875 112.5 " clip-rule="nonzero"/></clipPath></defs><g clip-path="url(#fe3656aaae)"><path fill="#000000" d="M 448.503906 112.675781 C 409.546875 112.675781 377.964844 144.261719 377.964844 183.21875 C 377.964844 222.171875 409.546875 253.757812 448.503906 253.757812 C 487.457031 253.757812 519.042969 222.171875 519.042969 183.21875 C 519.042969 144.261719 487.457031 112.675781 448.503906 112.675781 Z M 519.933594 580.566406 L 644.71875 426.566406 C 647.347656 423.324219 644.410156 418.59375 640.34375 419.515625 C 631.125 421.605469 621.800781 423.085938 612.375 423.9375 C 610.398438 424.117188 608.402344 424.273438 606.425781 424.394531 C 605.402344 424.460938 604.378906 424.511719 603.355469 424.5625 C 602.78125 424.589844 602.203125 424.613281 601.632812 424.632812 L 600.964844 424.667969 C 600.734375 424.675781 600.507812 424.683594 600.285156 424.691406 C 598.46875 424.753906 596.5625 424.785156 594.601562 424.804688 L 594.136719 424.804688 C 593.269531 424.8125 592.390625 424.8125 591.53125 424.804688 L 591.066406 424.804688 C 590.164062 424.796875 589.269531 424.777344 588.359375 424.753906 L 587.996094 424.753906 C 587.074219 424.730469 586.15625 424.703125 585.21875 424.667969 L 584.925781 424.65625 C 583.988281 424.613281 583.050781 424.570312 582.128906 424.53125 L 581.855469 424.511719 C 580.929688 424.46875 579.992188 424.410156 579.042969 424.347656 L 578.792969 424.332031 C 577.902344 424.273438 577.007812 424.199219 576.058594 424.132812 L 575.722656 424.105469 C 574.78125 424.03125 573.832031 423.945312 572.851562 423.847656 L 572.671875 423.839844 C 571.710938 423.746094 570.746094 423.644531 569.757812 423.539062 L 569.621094 423.523438 C 568.691406 423.417969 567.761719 423.316406 566.84375 423.203125 L 566.558594 423.167969 C 565.636719 423.050781 564.714844 422.929688 563.789062 422.808594 L 563.503906 422.765625 C 562.585938 422.636719 561.667969 422.507812 560.753906 422.371094 L 560.460938 422.328125 C 559.550781 422.1875 558.628906 422.042969 557.710938 421.890625 L 557.425781 421.847656 C 556.507812 421.691406 555.59375 421.527344 554.664062 421.367188 L 554.378906 421.3125 C 553.476562 421.152344 552.578125 420.976562 551.628906 420.796875 L 551.355469 420.746094 C 550.449219 420.574219 549.554688 420.386719 548.628906 420.195312 L 548.316406 420.136719 C 547.441406 419.945312 546.554688 419.757812 545.695312 419.558594 L 545.300781 419.480469 C 544.40625 419.277344 543.511719 419.066406 542.574219 418.847656 L 542.289062 418.785156 C 541.402344 418.570312 540.527344 418.355469 539.667969 418.140625 L 539.269531 418.042969 C 538.394531 417.820312 537.515625 417.589844 536.667969 417.363281 L 536.269531 417.261719 C 535.382812 417.027344 534.507812 416.78125 533.648438 416.550781 L 533.269531 416.4375 C 532.382812 416.1875 531.507812 415.9375 530.636719 415.679688 L 530.285156 415.578125 C 529.40625 415.320312 528.539062 415.054688 527.660156 414.785156 L 527.300781 414.675781 C 526.441406 414.410156 525.582031 414.132812 524.730469 413.859375 L 524.324219 413.726562 C 523.480469 413.453125 522.640625 413.175781 521.789062 412.882812 L 521.347656 412.738281 C 520.507812 412.453125 519.667969 412.160156 518.839844 411.871094 L 518.394531 411.714844 C 517.550781 411.417969 516.707031 411.105469 515.863281 410.792969 L 515.445312 410.648438 C 514.605469 410.339844 513.773438 410.023438 512.925781 409.695312 L 512.5 409.53125 C 511.675781 409.222656 510.851562 408.898438 510.015625 408.566406 L 509.5625 408.390625 C 508.742188 408.058594 507.917969 407.722656 507.109375 407.390625 L 506.636719 407.199219 C 505.828125 406.863281 505.019531 406.523438 504.226562 406.179688 L 503.71875 405.964844 C 502.921875 405.628906 502.132812 405.277344 501.316406 404.914062 L 500.824219 404.699219 C 500.03125 404.34375 499.242188 403.992188 498.460938 403.632812 L 497.925781 403.390625 C 497.148438 403.03125 496.378906 402.667969 495.621094 402.316406 L 495.035156 402.039062 C 494.253906 401.671875 493.476562 401.292969 492.6875 400.90625 L 492.164062 400.65625 C 491.398438 400.277344 490.632812 399.890625 489.859375 399.503906 L 489.300781 399.222656 C 488.542969 398.832031 487.777344 398.445312 487.011719 398.042969 L 486.445312 397.757812 C 485.703125 397.363281 484.964844 396.976562 484.210938 396.570312 L 483.605469 396.253906 C 482.875 395.859375 482.144531 395.453125 481.421875 395.058594 L 480.777344 394.707031 C 480.054688 394.300781 479.34375 393.898438 478.636719 393.5 L 477.957031 393.113281 C 477.242188 392.710938 476.539062 392.300781 475.832031 391.890625 L 475.152344 391.5 C 474.449219 391.085938 473.753906 390.671875 473.046875 390.242188 L 472.359375 389.828125 C 471.671875 389.417969 470.980469 388.996094 470.285156 388.566406 L 469.574219 388.136719 C 468.917969 387.722656 468.265625 387.308594 467.613281 386.898438 L 466.800781 386.390625 C 466.152344 385.976562 465.507812 385.558594 464.851562 385.132812 L 464.050781 384.621094 C 463.421875 384.207031 462.796875 383.785156 462.160156 383.375 L 461.300781 382.796875 C 460.671875 382.375 460.042969 381.945312 459.425781 381.523438 L 458.582031 380.949219 C 458.023438 380.570312 457.464844 380.171875 456.90625 379.785156 L 455.863281 379.054688 C 455.3125 378.667969 454.761719 378.269531 454.210938 377.878906 L 453.164062 377.128906 C 452.648438 376.75 452.125 376.371094 451.609375 375.992188 L 450.480469 375.160156 C 449.964844 374.78125 449.457031 374.402344 448.949219 374.015625 L 447.804688 373.15625 C 447.324219 372.796875 446.835938 372.414062 446.355469 372.046875 L 445.152344 371.121094 C 444.703125 370.773438 444.253906 370.414062 443.804688 370.0625 L 442.507812 369.035156 C 442.050781 368.671875 441.589844 368.296875 441.128906 367.929688 L 440.558594 367.472656 C 440.335938 367.289062 440.109375 367.113281 439.890625 366.929688 C 439.453125 366.578125 439.015625 366.207031 438.574219 365.84375 L 437.277344 364.769531 C 436.867188 364.433594 436.457031 364.082031 436.046875 363.738281 L 435.40625 363.199219 C 435.164062 363 434.925781 362.792969 434.683594 362.585938 C 434.292969 362.25 433.90625 361.914062 433.519531 361.578125 L 432.855469 361.015625 C 432.601562 360.800781 432.355469 360.574219 432.101562 360.359375 C 431.734375 360.035156 431.359375 359.703125 430.992188 359.378906 L 430.304688 358.777344 C 430.054688 358.550781 429.800781 358.332031 429.542969 358.097656 C 429.179688 357.78125 428.820312 357.453125 428.460938 357.125 L 427.808594 356.535156 C 427.542969 356.292969 427.273438 356.050781 427.003906 355.800781 C 426.648438 355.480469 426.289062 355.148438 425.9375 354.820312 L 425.296875 354.230469 C 425.023438 353.976562 424.753906 353.730469 424.46875 353.464844 C 424.132812 353.152344 423.796875 352.835938 423.464844 352.515625 L 422.820312 351.90625 C 422.65625 351.769531 422.394531 351.527344 422.234375 351.390625 C 420.136719 349.636719 418.199219 347.683594 416.457031 345.574219 L 243.621094 136.847656 C 243.164062 136.296875 242.546875 136.007812 241.835938 136.007812 L 21.933594 137.175781 C 21.066406 137.175781 20.261719 137.664062 19.886719 138.441406 C 19.398438 139.4375 19.476562 140.117188 20.167969 140.949219 L 384.765625 581.28125 C 401.53125 601.527344 426.226562 613.066406 452.511719 612.921875 C 478.808594 612.78125 503.378906 600.992188 519.933594 580.566406 Z M 486.183594 348.332031 C 485.148438 347.632812 484.949219 346.203125 485.730469 345.234375 C 485.738281 345.222656 485.75 345.222656 485.75 345.214844 L 656.363281 134.664062 C 656.820312 134.105469 657.429688 133.8125 658.140625 133.804688 L 878.1875 132.644531 C 879.039062 132.644531 879.8125 133.160156 880.140625 133.949219 C 880.59375 134.898438 880.511719 135.59375 879.847656 136.410156 L 745.257812 302.5 L 745.058594 302.742188 C 744.578125 303.335938 744.085938 303.929688 743.605469 304.511719 L 743.148438 305.0625 C 742.875 305.398438 742.582031 305.742188 742.289062 306.089844 L 740.128906 308.636719 C 739.871094 308.933594 739.617188 309.234375 739.355469 309.535156 L 738.761719 310.21875 C 738.316406 310.722656 737.878906 311.230469 737.429688 311.738281 L 737.257812 311.925781 C 701.457031 352.285156 658.003906 376.285156 611.644531 381.316406 C 610.800781 381.410156 609.953125 381.496094 609.089844 381.574219 L 608.679688 381.617188 C 607.0625 381.765625 605.402344 381.890625 603.761719 381.996094 C 602.515625 382.074219 601.1875 382.140625 599.710938 382.203125 L 599.21875 382.21875 C 597.988281 382.261719 596.671875 382.296875 595.316406 382.316406 L 594.746094 382.320312 C 593.378906 382.332031 592.0625 382.332031 590.808594 382.316406 L 590.398438 382.304688 C 587.582031 382.261719 584.769531 382.152344 582.011719 381.96875 L 581.839844 381.960938 C 580.523438 381.875 579.179688 381.769531 577.738281 381.644531 L 577.339844 381.601562 C 575.972656 381.480469 574.605469 381.335938 573.292969 381.1875 L 572.957031 381.144531 C 568.71875 380.644531 564.441406 379.992188 560.230469 379.183594 L 559.867188 379.125 C 558.558594 378.867188 557.191406 378.589844 555.839844 378.296875 L 555.492188 378.21875 C 554.054688 377.902344 552.671875 377.585938 551.363281 377.265625 L 551.25 377.238281 C 548.476562 376.5625 545.652344 375.804688 542.847656 374.988281 L 542.53125 374.890625 C 541.242188 374.515625 539.898438 374.101562 538.542969 373.671875 L 538.117188 373.535156 C 536.734375 373.085938 535.394531 372.648438 534.121094 372.199219 L 533.835938 372.105469 C 531.109375 371.160156 528.359375 370.136719 525.648438 369.0625 L 525.324219 368.933594 C 524.082031 368.433594 522.777344 367.902344 521.4375 367.332031 L 520.917969 367.113281 C 519.613281 366.5625 518.332031 365.992188 517.09375 365.433594 L 516.65625 365.234375 C 515.203125 364.570312 513.910156 363.972656 512.699219 363.394531 L 512.628906 363.359375 C 511.382812 362.769531 510.09375 362.128906 508.691406 361.417969 L 508.367188 361.253906 C 507.160156 360.640625 505.925781 359.996094 504.589844 359.292969 L 504.011719 358.984375 C 502.777344 358.320312 501.535156 357.640625 500.335938 356.964844 L 499.75 356.632812 C 498.40625 355.871094 497.1875 355.167969 496.035156 354.484375 L 495.726562 354.304688 C 494.503906 353.585938 493.257812 352.824219 492.027344 352.070312 L 491.722656 351.882812 C 490.597656 351.183594 489.394531 350.417969 488.0625 349.550781 L 487.46875 349.164062 C 487.046875 348.886719 486.613281 348.613281 486.183594 348.332031 " fill-opacity="1" fill-rule="nonzero"/></g><g fill="#000000" fill-opacity="1"><g transform="translate(40.665744, 84.075611)"><g><path d="M 45.546875 -0.484375 L 43.40625 -0.140625 C 41.394531 0.179688 39.484375 -0.144531 37.671875 -1.125 C 35.867188 -2.113281 34.578125 -3.570312 33.796875 -5.5 L 33.3125 -6.65625 L 22.796875 -32.140625 L 12.21875 -6.65625 L 11.75 -5.5 C 10.96875 -3.570312 9.671875 -2.101562 7.859375 -1.09375 C 6.054688 -0.09375 4.144531 0.222656 2.125 -0.140625 L 0 -0.484375 L 3.984375 -10.03125 L 17.921875 -43.828125 L 17.453125 -44.921875 L 13.53125 -54.53125 L 15.59375 -54.8125 C 16.914062 -55.039062 18.195312 -54.972656 19.4375 -54.609375 C 20.675781 -54.242188 21.773438 -53.671875 22.734375 -52.890625 C 23.691406 -53.671875 24.800781 -54.242188 26.0625 -54.609375 C 27.320312 -54.972656 28.617188 -55.039062 29.953125 -54.8125 L 32.015625 -54.53125 L 28.09375 -44.921875 L 27.609375 -43.828125 L 41.5625 -10.03125 Z M 45.546875 -0.484375 "/></g></g></g><g fill="#000000" fill-opacity="1"><g transform="translate(122.126111, 84.075611)"><g><path d="M 46.84375 -9.140625 L 46.296875 -7.078125 C 45.835938 -5.015625 44.78125 -3.316406 43.125 -1.984375 C 41.476562 -0.660156 39.582031 0 37.4375 0 L 0 0 L 0 -45.609375 C 0 -47.710938 0.660156 -49.585938 1.984375 -51.234375 C 3.316406 -52.890625 5.015625 -53.96875 7.078125 -54.46875 L 9.140625 -54.953125 L 9.140625 -9.140625 Z M 46.84375 -9.140625 "/></g></g></g><g fill="#000000" fill-opacity="1"><g transform="translate(205.440937, 84.075611)"><g><path d="M 46.84375 -21.359375 L 46.84375 -8.65625 L 44.71875 -9.140625 C 42.65625 -9.597656 40.957031 -10.648438 39.625 -12.296875 C 38.300781 -13.941406 37.640625 -15.84375 37.640625 -18 L 37.640625 -20.875 L 29.671875 -20.875 C 27.515625 -20.875 25.613281 -21.523438 23.96875 -22.828125 C 22.320312 -24.140625 21.269531 -25.828125 20.8125 -27.890625 L 20.328125 -30.015625 L 38.125 -30.015625 C 39.726562 -30.015625 41.179688 -29.625 42.484375 -28.84375 C 43.785156 -28.070312 44.835938 -27.019531 45.640625 -25.6875 C 46.441406 -24.363281 46.84375 -22.921875 46.84375 -21.359375 Z M 46.234375 -2.546875 L 46.78125 0 L 19.03125 0 C 16.414062 0 13.953125 -0.488281 11.640625 -1.46875 C 9.328125 -2.457031 7.300781 -3.820312 5.5625 -5.5625 C 3.820312 -7.300781 2.457031 -9.328125 1.46875 -11.640625 C 0.488281 -13.953125 0 -16.414062 0 -19.03125 L 0 -35.921875 C 0 -38.535156 0.488281 -41 1.46875 -43.3125 C 2.457031 -45.625 3.820312 -47.648438 5.5625 -49.390625 C 7.300781 -51.128906 9.328125 -52.488281 11.640625 -53.46875 C 13.953125 -54.457031 16.414062 -54.953125 19.03125 -54.953125 L 46.84375 -54.953125 L 46.234375 -52.484375 C 45.773438 -50.515625 44.765625 -48.910156 43.203125 -47.671875 C 41.648438 -46.429688 39.863281 -45.8125 37.84375 -45.8125 L 21.359375 -45.8125 C 19.117188 -45.8125 17.070312 -45.257812 15.21875 -44.15625 C 13.363281 -43.0625 11.882812 -41.585938 10.78125 -39.734375 C 9.6875 -37.878906 9.140625 -35.832031 9.140625 -33.59375 L 9.140625 -21.359375 C 9.140625 -19.117188 9.6875 -17.070312 10.78125 -15.21875 C 11.882812 -13.363281 13.363281 -11.882812 15.21875 -10.78125 C 17.070312 -9.6875 19.117188 -9.140625 21.359375 -9.140625 L 37.84375 -9.140625 C 39.863281 -9.140625 41.648438 -8.519531 43.203125 -7.28125 C 44.765625 -6.039062 45.773438 -4.460938 46.234375 -2.546875 Z M 46.234375 -2.546875 "/></g></g></g><g fill="#000000" fill-opacity="1"><g transform="translate(288.755775, 84.075611)"><g><path d="M 46.84375 -54.953125 L 46.84375 -21.703125 C 46.84375 -18.722656 46.269531 -15.914062 45.125 -13.28125 C 43.976562 -10.65625 42.410156 -8.34375 40.421875 -6.34375 C 38.429688 -4.351562 36.128906 -2.796875 33.515625 -1.671875 C 30.910156 -0.554688 28.117188 0 25.140625 0 L 21.703125 0 C 18.722656 0 15.914062 -0.554688 13.28125 -1.671875 C 10.65625 -2.796875 8.34375 -4.351562 6.34375 -6.34375 C 4.351562 -8.34375 2.796875 -10.65625 1.671875 -13.28125 C 0.554688 -15.914062 0 -18.722656 0 -21.703125 L 0 -33.25 C 0 -36.21875 0.554688 -39.019531 1.671875 -41.65625 C 2.796875 -44.289062 4.351562 -46.601562 6.34375 -48.59375 C 8.34375 -50.582031 10.65625 -52.140625 13.28125 -53.265625 C 15.914062 -54.390625 18.722656 -54.953125 21.703125 -54.953125 L 38.53125 -54.953125 L 38.046875 -52.828125 C 37.585938 -50.765625 36.523438 -49.078125 34.859375 -47.765625 C 33.191406 -46.460938 31.300781 -45.8125 29.1875 -45.8125 L 23.421875 -45.8125 C 20.765625 -45.8125 18.359375 -45.171875 16.203125 -43.890625 C 14.054688 -42.609375 12.34375 -40.890625 11.0625 -38.734375 C 9.78125 -36.585938 9.140625 -34.1875 9.140625 -31.53125 L 9.140625 -23.421875 C 9.140625 -20.804688 9.78125 -18.410156 11.0625 -16.234375 C 12.34375 -14.066406 14.054688 -12.34375 16.203125 -11.0625 C 18.359375 -9.78125 20.765625 -9.140625 23.421875 -9.140625 C 26.035156 -9.140625 28.414062 -9.78125 30.5625 -11.0625 C 32.71875 -12.34375 34.4375 -14.066406 35.71875 -16.234375 C 37 -18.410156 37.640625 -20.804688 37.640625 -23.421875 L 37.640625 -45.609375 C 37.640625 -47.710938 38.300781 -49.585938 39.625 -51.234375 C 40.957031 -52.890625 42.65625 -53.96875 44.71875 -54.46875 Z M 46.84375 -54.953125 "/></g></g></g><g fill="#000000" fill-opacity="1"><g transform="translate(372.07059, 84.075611)"><g/></g></g><g fill="#000000" fill-opacity="1"><g transform="translate(425.096011, 84.075611)"><g><path d="M 52.34375 -54.53125 L 25.96875 -0.625 C 25.738281 -0.207031 25.394531 0 24.9375 0 C 24.476562 0 24.15625 -0.207031 23.96875 -0.625 L 0 -54.53125 L 2.203125 -54.875 C 4.347656 -55.15625 6.359375 -54.742188 8.234375 -53.640625 C 10.117188 -52.546875 11.445312 -50.988281 12.21875 -48.96875 L 25.34375 -21.359375 L 40.109375 -48.96875 C 40.890625 -50.988281 42.21875 -52.546875 44.09375 -53.640625 C 45.96875 -54.742188 47.984375 -55.15625 50.140625 -54.875 Z M 52.34375 -54.53125 "/></g></g></g><g fill="#000000" fill-opacity="1"><g transform="translate(514.523648, 84.075611)"><g><path d="M 9.140625 -54.953125 L 9.140625 -9.34375 C 9.140625 -7.238281 8.484375 -5.359375 7.171875 -3.703125 C 5.867188 -2.054688 4.1875 -0.984375 2.125 -0.484375 L 0 0 L 0 -45.609375 C 0 -47.710938 0.660156 -49.585938 1.984375 -51.234375 C 3.316406 -52.890625 5.015625 -53.96875 7.078125 -54.46875 Z M 9.140625 -54.953125 "/></g></g></g><g fill="#000000" fill-opacity="1"><g transform="translate(560.337302, 84.075611)"><g><path d="M 16 -32.078125 L 30.765625 -32.078125 C 33.742188 -32.078125 36.4375 -31.351562 38.84375 -29.90625 C 41.25 -28.46875 43.171875 -26.535156 44.609375 -24.109375 C 46.054688 -21.679688 46.78125 -18.976562 46.78125 -16 C 46.78125 -13.070312 46.066406 -10.394531 44.640625 -7.96875 C 43.222656 -5.539062 41.300781 -3.601562 38.875 -2.15625 C 36.445312 -0.71875 33.742188 0 30.765625 0 L 9.34375 0 C 7.238281 0 5.359375 -0.660156 3.703125 -1.984375 C 2.054688 -3.316406 0.984375 -5.015625 0.484375 -7.078125 L 0 -9.140625 L 30.765625 -9.140625 C 32.648438 -9.140625 34.265625 -9.8125 35.609375 -11.15625 C 36.960938 -12.507812 37.640625 -14.125 37.640625 -16 C 37.640625 -17.925781 36.960938 -19.550781 35.609375 -20.875 C 34.265625 -22.207031 32.648438 -22.875 30.765625 -22.875 L 16 -22.875 C 13.070312 -22.875 10.394531 -23.59375 7.96875 -25.03125 C 5.539062 -26.476562 3.601562 -28.414062 2.15625 -30.84375 C 0.71875 -33.269531 0 -35.972656 0 -38.953125 C 0 -41.878906 0.71875 -44.554688 2.15625 -46.984375 C 3.601562 -49.410156 5.539062 -51.34375 7.96875 -52.78125 C 10.394531 -54.226562 13.070312 -54.953125 16 -54.953125 L 46.78125 -54.953125 L 46.296875 -52.828125 C 45.835938 -50.765625 44.769531 -49.078125 43.09375 -47.765625 C 41.425781 -46.460938 39.539062 -45.8125 37.4375 -45.8125 L 16 -45.8125 C 14.125 -45.8125 12.507812 -45.132812 11.15625 -43.78125 C 9.8125 -42.4375 9.140625 -40.828125 9.140625 -38.953125 C 9.140625 -37.023438 9.8125 -35.394531 11.15625 -34.0625 C 12.507812 -32.738281 14.125 -32.078125 16 -32.078125 Z M 16 -32.078125 "/></g></g></g><g fill="#000000" fill-opacity="1"><g transform="translate(643.652117, 84.075611)"><g><path d="M 46.84375 -54.953125 L 46.84375 -21.90625 C 46.84375 -18.882812 46.269531 -16.046875 45.125 -13.390625 C 43.976562 -10.734375 42.394531 -8.410156 40.375 -6.421875 C 38.363281 -4.429688 36.03125 -2.863281 33.375 -1.71875 C 30.71875 -0.570312 27.878906 0 24.859375 0 L 21.90625 0 C 18.882812 0 16.046875 -0.570312 13.390625 -1.71875 C 10.734375 -2.863281 8.410156 -4.429688 6.421875 -6.421875 C 4.429688 -8.410156 2.863281 -10.734375 1.71875 -13.390625 C 0.570312 -16.046875 0 -18.882812 0 -21.90625 L 0 -45.609375 C 0 -47.710938 0.660156 -49.597656 1.984375 -51.265625 C 3.316406 -52.941406 5.015625 -54.007812 7.078125 -54.46875 L 9.140625 -54.953125 L 9.140625 -23.421875 C 9.140625 -20.765625 9.78125 -18.359375 11.0625 -16.203125 C 12.34375 -14.054688 14.054688 -12.34375 16.203125 -11.0625 C 18.359375 -9.78125 20.765625 -9.140625 23.421875 -9.140625 C 26.035156 -9.140625 28.414062 -9.78125 30.5625 -11.0625 C 32.71875 -12.34375 34.4375 -14.054688 35.71875 -16.203125 C 37 -18.359375 37.640625 -20.765625 37.640625 -23.421875 L 37.640625 -45.609375 C 37.640625 -47.710938 38.300781 -49.597656 39.625 -51.265625 C 40.957031 -52.941406 42.65625 -54.007812 44.71875 -54.46875 Z M 46.84375 -54.953125 "/></g></g></g><g fill="#000000" fill-opacity="1"><g transform="translate(726.966931, 84.075611)"><g><path d="M 45.546875 -0.484375 L 43.40625 -0.140625 C 41.394531 0.179688 39.484375 -0.144531 37.671875 -1.125 C 35.867188 -2.113281 34.578125 -3.570312 33.796875 -5.5 L 33.3125 -6.65625 L 22.796875 -32.140625 L 12.21875 -6.65625 L 11.75 -5.5 C 10.96875 -3.570312 9.671875 -2.101562 7.859375 -1.09375 C 6.054688 -0.09375 4.144531 0.222656 2.125 -0.140625 L 0 -0.484375 L 3.984375 -10.03125 L 17.921875 -43.828125 L 17.453125 -44.921875 L 13.53125 -54.53125 L 15.59375 -54.8125 C 16.914062 -55.039062 18.195312 -54.972656 19.4375 -54.609375 C 20.675781 -54.242188 21.773438 -53.671875 22.734375 -52.890625 C 23.691406 -53.671875 24.800781 -54.242188 26.0625 -54.609375 C 27.320312 -54.972656 28.617188 -55.039062 29.953125 -54.8125 L 32.015625 -54.53125 L 28.09375 -44.921875 L 27.609375 -43.828125 L 41.5625 -10.03125 Z M 45.546875 -0.484375 "/></g></g></g><g fill="#000000" fill-opacity="1"><g transform="translate(808.427288, 84.075611)"><g><path d="M 46.84375 -9.140625 L 46.296875 -7.078125 C 45.835938 -5.015625 44.78125 -3.316406 43.125 -1.984375 C 41.476562 -0.660156 39.582031 0 37.4375 0 L 0 0 L 0 -45.609375 C 0 -47.710938 0.660156 -49.585938 1.984375 -51.234375 C 3.316406 -52.890625 5.015625 -53.96875 7.078125 -54.46875 L 9.140625 -54.953125 L 9.140625 -9.140625 Z M 46.84375 -9.140625 "/></g></g></g></svg>